
<svg width="200" height="242.554" viewBox="0 0 52.917 64.176" xmlns="http://www.w3.org/2000/svg"><defs><clipPath clipPathUnits="userSpaceOnUse" id="a"><path d="M0 595.276h841.89V0H0Z"/></clipPath></defs><g style="stroke-width:1.88175;fill:#006a69;fill-opacity:1"><g style="fill:#006a69;fill-opacity:1;stroke-width:1.88175"><path d="M0 0h39.614l50.457 87.394 50.458 87.396 50.458-87.396L241.444 0h39.615l-70.265 121.701-70.265 121.702-70.264-121.702Z" style="fill:#006a69;fill-opacity:1;fill-rule:nonzero;stroke:none;stroke-width:1.88175" transform="matrix(.18747 0 0 -.18747 .225 45.632)"/></g><g clip-path="url(#a)" style="fill:#006a69;fill-opacity:1;stroke-width:1.88175" transform="matrix(.18747 0 0 -.18747 -52.345 96.029)"><g style="fill:#006a69;fill-opacity:1;stroke-width:1.88175"><path d="M0 0c-2.936-3.487-2.484-6.914-2.69-10.193-.309-4.917.073-16.576.073-16.576L31.954 2.02 20.941 21.094C17.14 17.367 2.55 3.028 0 0" style="fill:#006a69;fill-opacity:1;fill-rule:nonzero;stroke:none;stroke-width:1.88175" transform="translate(429.916 343.05)"/></g><g style="fill:#006a69;fill-opacity:1;stroke-width:1.88175"><path d="M0 0a78385.128 78385.128 0 0 1-48.184-25.962c-4.505-2.439-4.474-5.038-4.894-8.923-.188-1.74-.356-4.83-.485-7.712h78.156z" style="fill:#006a69;fill-opacity:1;fill-rule:nonzero;stroke:none;stroke-width:1.88175" transform="translate(481.3 311.417)"/></g><g style="fill:#006a69;fill-opacity:1;stroke-width:1.88175"><path d="m0 0-11.683 20.235C-20.239 13.553-43.266-4.434-46.311-6.8c-3.751-2.914-4.295-19.023-4.295-19.023z" style="fill:#006a69;fill-opacity:1;fill-rule:nonzero;stroke:none;stroke-width:1.88175" transform="translate(477.707 317.64)"/></g><g style="fill:#006a69;fill-opacity:1;stroke-width:1.88175"><path d="m0 0-9.844-17.051 44.753-22.584s1.024 3.092 2.013 9.86c1.279 8.743-9.57 20.625-9.57 20.625L8.871 15.365Z" style="fill:#006a69;fill-opacity:1;fill-rule:nonzero;stroke:none;stroke-width:1.88175" transform="translate(378.47 342.388)"/></g><g style="fill:#006a69;fill-opacity:1;stroke-width:1.88175"><path d="m0 0 25.612-33.219 2.682 38.466 6.304-3.621-.135-17.41L55.467 5.244l-26.22 45.414Z" style="fill:#006a69;fill-opacity:1;fill-rule:nonzero;stroke:none;stroke-width:1.88175" transform="translate(391.697 365.297)"/></g><g style="fill:#006a69;fill-opacity:1;stroke-width:1.88175"><path d="M0 0c-2.034 1.031-33.492 17.006-38.671 19.636l-28.271-48.967h74.53L8.884-16.67C9.869-7.056 3.142-1.594 0 0" style="fill:#006a69;fill-opacity:1;fill-rule:nonzero;stroke:none;stroke-width:1.88175" transform="translate(402.939 298.151)"/></g><g style="fill:#006a69;fill-opacity:1;stroke-width:1.88175"><path d="m0 0 26.974.011 21.428 61.862H-8.085v13.521h-22.671V37.029h40.909L0 0" style="fill:#006a69;fill-opacity:1;fill-rule:nonzero;stroke:none;stroke-width:1.88175" transform="translate(356.718 185.441)"/></g><g style="fill:#006a69;fill-opacity:1;stroke-width:1.88175"><path d="M0 0h26.586v77.575h-38.322V52.858H0Z" style="fill:#006a69;fill-opacity:1;fill-rule:nonzero;stroke:none;stroke-width:1.88175" transform="translate(290.949 169.906)"/></g><g style="fill:#006a69;fill-opacity:1;stroke-width:1.88175"><path d="M0 0v42.878h-45.233V18.053h18.384V0Z" style="fill:#006a69;fill-opacity:1;fill-rule:nonzero;stroke:none;stroke-width:1.88175" transform="translate(458.294 204.633)"/></g><g style="fill:#006a69;fill-opacity:1;stroke-width:1.88175"><path d="m0 0 9.95 26.274-13.445 8.103L9.947 63.745h-26.931l-7.515-17.113s-20.263 12.056-25.563 15.16c-2.162 1.265-3.562 2.332-5.721 2.333-1.699.001-24.826-.056-24.826-.056l-.064-62.121h27.034c-.063 9.034.035 30.212.035 30.212L0 0" style="fill:#006a69;fill-opacity:1;fill-rule:nonzero;stroke:none;stroke-width:1.88175" transform="translate(549.73 183.506)"/></g></g></g></svg>